<?xml version="1.0" encoding="UTF-8"?>
<svg width="1304px" height="540px" viewBox="0 0 1304 540" version="1.1" xmlns="http://www.w3.org/2000/svg" xmlns:xlink="http://www.w3.org/1999/xlink">
    <!-- Generator: Sketch 53.2 (72643) - https://sketchapp.com -->
    <title>logo-registered</title>
    <desc>Created with Sketch.</desc>
    <g id="logo-registered" stroke="none" stroke-width="1" fill="none" fill-rule="evenodd">
        <polygon id="Path" fill="#209FDA" fill-rule="nonzero" points="1165.92581 85.5 1165.92581 2.84217094e-14 953.029075 2.84217094e-14 953.029075 85.5 1001.41197 85.5 915.158117 191.98 828.824324 85.5 877.427052 85.5 877.427052 2.84217094e-14 718.369029 2.84217094e-14 718.369029 95.72 855.823619 265.26 718.369029 434.96 718.369029 452.02 783.898776 452.02 783.898776 539.64 877.427052 539.64 877.427052 452.02 823.288569 452.02 915.218071 338.52 915.238056 338.52 1007.26748 452.02 953.029075 452.02 953.029075 539.64 1165.92581 539.64 1165.92581 452.02 1125.99643 452.02 974.572554 265.26 1120.16091 85.5"></polygon>
        <polygon id="Path" fill="#026BA4" fill-rule="nonzero" points="663.511098 7.10542736e-15 663.511098 85.5 710.075389 85.5 718.369029 95.72 718.369029 7.10542736e-15"></polygon>
        <polygon id="Path" fill="#026BA4" fill-rule="nonzero" points="718.369029 452.02 718.369029 434.96 704.539634 452.02 663.511098 452.02 663.511098 539.64 783.898776 539.64 783.898776 452.02"></polygon>
        <path d="M321.753182,411.86 L397.355205,411.86 C388.507767,433.829527 375.969703,454.122269 360.283634,471.86 C344.100209,454.216816 331.067028,433.921419 321.753182,411.86" id="Path" fill="#78212E" fill-rule="nonzero"></path>
        <path d="M360.283634,189.28 C338.323919,213.190393 322.254853,241.908137 313.359619,273.14 C316.891899,280.039338 319.762554,287.25831 321.933044,294.7 L396.755665,294.7 C399.000724,287.354671 401.94532,280.242036 405.548922,273.46 C397.16015,242.277678 381.666637,213.464341 360.283634,189.28 Z M321.933044,294.7 C328.532657,317.438017 328.726305,341.558795 322.492615,364.4 L396.096171,364.4 C389.556814,341.597488 389.76507,317.386469 396.695711,294.7 L321.933044,294.7 Z M321.933044,294.7 L308.443389,294.7 C304.4573,317.752715 304.342477,341.309464 308.10365,364.4 L322.492615,364.4 C328.726305,341.558795 328.532657,317.438017 321.933044,294.7 L321.933044,294.7 Z" id="Shape" fill="#78212E" fill-rule="nonzero"></path>
        <path d="M710.075389,85.5 L663.511098,85.5 L663.511098,0.02 L575.578531,0.02 L575.578531,85.5 L632.374975,85.5 L632.374975,159.2 C597.959316,134.487772 556.623062,121.286425 514.26555,121.48 C455.695203,121.405246 399.800758,146.01621 360.283634,189.28 C381.64506,213.470272 397.117805,242.283149 405.488968,273.46 C426.616961,233.500977 468.092547,208.51034 513.266316,208.52 C580.614669,208.52 632.39496,263.16 632.39496,330.52 L632.39496,331.2 C632.05522,398.28 580.434807,452.56 513.266316,452.56 C468.118464,452.593197 426.649241,427.652566 405.488968,387.74 L405.488968,387.74 C401.561267,380.340239 398.413394,372.551658 396.096171,364.5 L308.163604,364.5 C309.449626,372.450225 311.204684,380.317312 313.419573,388.06 C315.728039,396.190434 318.531125,404.171995 321.813136,411.96 L397.355205,411.96 C388.507767,433.929527 375.969703,454.222269 360.283634,471.96 C399.800758,515.22379 455.695203,539.834754 514.26555,539.76 C571.027207,540.091874 625.2665,516.316729 663.511098,474.34 L663.511098,452.04 L704.51965,452.04 L718.349044,434.96 L718.349044,95.74 L710.075389,85.5 Z M632.39496,501.9 L632.39496,539.74 L663.511098,539.74 L663.511098,474.18 C654.122148,484.469293 643.69458,493.758755 632.39496,501.9 L632.39496,501.9 Z M313.359619,273.14 C311.330847,280.231983 309.689671,287.429316 308.443389,294.7 L321.933044,294.7 C319.762554,287.25831 316.891899,280.039338 313.359619,273.14 L313.359619,273.14 Z" id="Shape" fill="#8A8C8F" fill-rule="nonzero"></path>
        <path d="M410.085443,294.7 C408.886362,287.5 407.347542,280.4 405.488968,273.46 C401.885366,280.242036 398.94077,287.354671 396.695711,294.7 C389.76507,317.386469 389.556814,341.597488 396.096171,364.4 L410.405197,364.4 C413.946832,341.293291 413.838932,317.77319 410.085443,294.7 L410.085443,294.7 Z M208.899726,121.48 C107.340408,121.487508 20.4924481,194.571683 3.0575806,294.7 L91.3298871,294.7 C107.05363,243.467257 154.346701,208.503753 207.900492,208.52 C252.445051,208.335148 293.271255,233.351373 313.359619,273.14 C322.254853,241.908137 338.323919,213.190393 360.283634,189.28 C321.959954,145.880863 266.772037,121.163964 208.899726,121.48 L208.899726,121.48 Z M297.251971,411.86 C274.867182,437.877726 242.206918,452.761934 207.900492,452.58 C153.573455,452.598435 105.790512,416.63791 90.7303469,364.4 L308.10365,364.4 C304.342477,341.309464 304.4573,317.752715 308.443389,294.7 L3.0575806,294.7 C-0.901812988,317.755068 -1.01661424,341.307372 2.71784114,364.4 L2.71784114,364.4 C19.3144307,465.441984 106.580185,539.594765 208.899726,539.6 C266.781507,539.900862 321.970958,515.161403 360.283634,471.74 C344.100209,454.096816 331.067028,433.801419 321.753182,411.74 L297.251971,411.86 Z" id="Shape" fill="#B72768" fill-rule="nonzero"></path>
        <path d="M1218.00121,42.5256303 C1217.97695,35.088311 1219.92537,27.7775958 1223.64777,21.3390075 C1227.32224,14.8302991 1232.69196,9.43930902 1239.18583,5.73940531 C1252.3348,-1.89112013 1268.55823,-1.91455075 1281.72918,5.67796224 C1294.90014,13.2704752 1303.01152,27.321911 1302.99999,42.5256303 C1303.00343,57.563045 1295.04139,71.4769786 1282.07567,79.0915785 C1272.25377,84.8883038 1260.51685,86.5011703 1249.49562,83.5686732 C1238.47439,80.636176 1229.09061,73.4035765 1223.44754,63.4919763 C1219.82374,57.1023119 1217.94538,49.8713159 1218.00121,42.5256303 L1218.00121,42.5256303 Z M1224.00239,42.5099293 C1224.03546,62.6488325 1240.3841,78.9664165 1260.56132,78.9994222 C1266.98081,79.035979 1273.29048,77.3372624 1278.82077,74.0835321 C1284.31382,70.8786092 1288.88045,66.3068839 1292.07488,60.8146256 C1298.64171,49.5201571 1298.64171,35.5796348 1292.07488,24.2851662 C1288.864,18.769578 1284.27712,14.1776454 1278.7607,10.9563098 C1273.23757,7.68114827 1266.92555,5.96798059 1260.50126,6.00045319 C1254.08505,5.96872284 1247.77835,7.65973881 1242.24182,10.89636 C1236.71573,14.1011467 1232.11506,18.6793104 1228.8876,24.1852497 C1225.61664,29.7350478 1223.92739,36.0715113 1224.00239,42.5099293 L1224.00239,42.5099293 Z M1277.71027,31.7514911 C1277.75957,34.585589 1276.9246,37.364793 1275.32115,39.7037773 C1273.65429,42.0504666 1271.31531,43.8385645 1268.6117,44.833002 L1281.95096,67 L1272.51393,67 L1260.88687,47.1192843 L1253.30142,47.1192843 L1253.30142,67 L1244.97931,67 L1244.97931,17 L1259.6525,17 C1265.86421,17 1270.44336,18.2127237 1273.33021,20.638171 C1276.39378,23.4897924 1277.98491,27.5827114 1277.65054,31.7514911 L1277.71027,31.7514911 Z M1253.09214,40.9878219 L1259.04005,40.9878219 C1261.64085,41.1113592 1264.19829,40.291667 1266.23702,38.6811033 C1268.0075,37.2304649 1269.00308,35.0466164 1268.93341,32.7664404 C1269.13269,30.5265746 1268.24069,28.327367 1266.53442,26.8517775 C1264.25129,25.466833 1261.58747,24.8321953 1258.92109,25.0379476 L1252.97318,25.0379476 L1253.09214,40.9878219 Z" id="Shape" fill="#209FDA" fill-rule="nonzero"></path>
    </g>
</svg>